<svg xmlns="http://www.w3.org/2000/svg" viewBox="0 0 512 512" width="512" height="512">
  <defs>
    <linearGradient id="bg" x1="0%" y1="0%" x2="100%" y2="100%">
      <stop offset="0%" stop-color="#0a0a0c" />
      <stop offset="100%" stop-color="#121216" />
    </linearGradient>
    <linearGradient id="cloud" x1="0%" y1="0%" x2="0%" y2="100%">
      <stop offset="0%" stop-color="#ffffff" />
      <stop offset="100%" stop-color="#a0a0b0" />
    </linearGradient>
    <linearGradient id="accent" x1="0%" y1="0%" x2="100%" y2="100%">
      <stop offset="0%" stop-color="#6366f1" />
      <stop offset="100%" stop-color="#8b5cf6" />
    </linearGradient>
  </defs>
  
  <rect width="512" height="512" rx="128" fill="url(#bg)" />
  
  <g transform="translate(128, 128) scale(1.5)">
    <!-- Base App Icon based on CloudRain but polished -->
    <path fill="url(#cloud)" opacity="0.9" d="M125 106.6c-4.3 0-8.5-1-12.4-2.8-5 18-21.2 31.4-40.6 31.4-23.7 0-43-19.3-43-43 0-16.7 9.5-31.2 23.6-38.6-3-20.1 8-40.4 27.2-46.7 19.3-6.4 40.5 1.5 49 19.1 4.5-5.9 11.5-9.3 19.2-9.3 13.9 0 25 11.1 25 25 0 9-4.8 17.5-12.2 21.8 1.4-1.2 2.8-2 4.2-2 16.5 0 30 13.5 30 30s-13.5 30-30 30z"/>
    <path stroke="url(#accent)" stroke-width="8" stroke-linecap="round" stroke-linejoin="round" d="M80 145v15M110 145v15M50 145v15" />
  </g>
</svg>
